<svg xmlns:dc="http://purl.org/dc/elements/1.1/" xmlns:cc="http://creativecommons.org/ns#" xmlns:rdf="http://www.w3.org/1999/02/22-rdf-syntax-ns#" xmlns:svg="http://www.w3.org/2000/svg" xmlns="http://www.w3.org/2000/svg" xmlns:xlink="http://www.w3.org/1999/xlink" version="1.1" width="445.9" height="1512.9" id="svg2"><defs id="defs4"><linearGradient id="linearGradient7300"><stop id="stop7302" offset="0" style="stop-color:#855e42;stop-opacity:1"/><stop id="stop7304" offset="1" style="stop-color:#5c4033;stop-opacity:1"/></linearGradient><linearGradient id="linearGradient5836"><stop id="stop5838" offset="0" style="stop-color:#5c4033;stop-opacity:1"/><stop id="stop5840" offset="1" style="stop-color:#855e42;stop-opacity:1"/></linearGradient><linearGradient id="linearGradient4019"><stop id="stop4031" offset="0" style="stop-color:#f0c000;stop-opacity:1"/><stop id="stop4023" offset="1" style="stop-color:#b5a642;stop-opacity:1"/></linearGradient><linearGradient x1="288" y1="194" x2="1210" y2="1192" id="linearGradient4073" xlink:href="#linearGradient4019" gradientUnits="userSpaceOnUse"/><linearGradient x1="288" y1="194" x2="1210" y2="1192" id="linearGradient4095" xlink:href="#linearGradient4019" gradientUnits="userSpaceOnUse"/><linearGradient x1="288" y1="194" x2="1210" y2="1192" id="linearGradient4073-4" xlink:href="#linearGradient4019-4" gradientUnits="userSpaceOnUse"/><linearGradient id="linearGradient4019-4"><stop id="stop4031-3" offset="0" style="stop-color:#f0c000;stop-opacity:1"/><stop id="stop4023-8" offset="1" style="stop-color:#b5a642;stop-opacity:1"/></linearGradient><linearGradient x1="288" y1="194" x2="1210" y2="1192" id="linearGradient4491" xlink:href="#linearGradient4019" gradientUnits="userSpaceOnUse"/><linearGradient x1="288" y1="194" x2="1210" y2="1192" id="linearGradient4495" xlink:href="#linearGradient4019" gradientUnits="userSpaceOnUse"/><linearGradient x1="774" y1="467" x2="726" y2="434" id="linearGradient5805" xlink:href="#linearGradient4019" gradientUnits="userSpaceOnUse" gradientTransform="matrix(1.0043494,0,0,0.71193738,-4.2642151,139.56027)"/><radialGradient cx="749.5" cy="399.5" r="66.5" fx="749.5" fy="399.5" id="radialGradient5811" xlink:href="#linearGradient4019" gradientUnits="userSpaceOnUse" gradientTransform="matrix(1,0,0,0.66917296,0,132.16541)"/><linearGradient x1="615" y1="551" x2="807" y2="961" id="linearGradient5815" xlink:href="#linearGradient4019" gradientUnits="userSpaceOnUse"/><radialGradient cx="750" cy="61.5" r="108.5" fx="750" fy="61.5" id="radialGradient7330" xlink:href="#linearGradient7300" gradientUnits="userSpaceOnUse" gradientTransform="matrix(1,0,0,2.2945274,-1,12.78009)"/></defs><metadata id="metadata7"><rdf:RDF><cc:Work rdf:about=""><dc:format>image/svg+xml</dc:format><dc:type rdf:resource="http://purl.org/dc/dcmitype/StillImage"/></cc:Work></rdf:RDF></metadata><g transform="translate(-527.11419,1090.6709)" id="layer1" display="none"><g transform="translate(234.25139,106.67361)" id="g3836"/><path d="M1500 750A750 750 0 1 1 0 750 750 750 0 1 1 1500 750z" transform="translate(0,-447.63782)" id="path3249" style="fill:url(#linearGradient4073);stroke-width:2;stroke:#afafaf"/><path d="M750 0C335.8 0 0 335.8 0 750c0 414.2 335.8 750 750 750 414.2 0 750-335.8 750-750C1500 335.8 1164.2 0 750 0z" transform="matrix(-0.90939374,0,0,-0.90939374,1432.0453,984.40749)" id="path4087" style="fill:url(#linearGradient4095);stroke-width:1.1;stroke:#afafaf"/><path d="M750 0C335.8 0 0 335.8 0 750c0 414.2 335.8 750 750 750 414.2 0 750-335.8 750-750C1500 335.8 1164.2 0 750 0z" transform="matrix(-0.89073951,0,0,-0.89073951,1418.0546,970.41682)" id="path4097" style="fill:#fff;stroke-width:2.2;stroke:#000"/><path d="M750 0C335.8 0 0 335.8 0 750c0 414.2 335.8 750 750 750 414.2 0 750-335.8 750-750C1500 335.8 1164.2 0 750 0z" transform="matrix(-0.8134577,0,0,-0.8134577,1360.0932,912.45546)" id="path4101" style="fill:#fff;stroke-width:2.5;stroke:#000"/><path d="M1067.5-219.2 750.8 302.2 1232.8-72.1 268.4-72 749.5 303 433.6-219.1 1334.6 123.2 751.5 302.6 1360.4 343 140.9 343.7 749.6 303.9 166.5 123.9" id="path4281" style="fill:none;stroke-width:2;stroke:#000"/><path d="M750 0C335.8 0 0 335.8 0 750c0 414.2 335.8 750 750 750 414.2 0 750-335.8 750-750C1500 335.8 1164.2 0 750 0z" transform="matrix(-0.47668664,0,0,-0.47668664,1107.515,659.87717)" id="path4103" style="fill:#fff;stroke-width:4.1;stroke:#000"/><path d="M486 403.9C429.8 258.3 502.3 94.7 647.9 38.5 793.5-17.7 957.1 54.8 1013.3 200.4 1069.5 346 997 509.6 851.4 565.8 705.8 622 542.2 549.5 486 403.9z" id="path4210" fill="none"/><text transform="matrix(0.99813602,0.06102853,-0.06102853,0.99813602,19.781141,-45.205309)" id="text4213" xml:space="preserve" style="fill:#000;font-family:Sans;font-size:40;letter-spacing:0;line-height:125;word-spacing:0"><textPath xlink:href="#path4210" id="textPath4217"><tspan id="tspan4215" style="font-size:56;letter-spacing:15">SCIENCING</tspan></textPath></text><text transform="matrix(-0.74232293,0.6700423,-0.6700423,-0.74232293,1510.6078,23.066597)" id="text4234" xml:space="preserve" style="fill:#000;font-family:Sans;font-size:40;letter-spacing:0;line-height:125;word-spacing:0"><textPath xlink:href="#path4210" id="textPath4238"><tspan id="tspan4236" style="font-size:56;letter-spacing:15">MANDATE</tspan></textPath></text><path d="M640 150 750 750 861.3 150" transform="translate(0,-447.63782)" id="path4277" style="fill:none;stroke-width:2;stroke:#000"/><path d="M750 0C335.8 0 0 335.8 0 750c0 414.2 335.8 750 750 750 414.2 0 750-335.8 750-750C1500 335.8 1164.2 0 750 0z" transform="matrix(-0.35287929,0,0,-0.35287929,1014.6594,567.02166)" id="path4105" style="fill:#fff;stroke-width:5.7;stroke:#000"/><rect width="567.5" height="212.5" x="453.8" y="942.5" transform="translate(0,-447.63782)" id="rect4313" fill="#fff"/><path d="M1303.4 555.3 750.2 304.4 195.1 557.9" id="path4311" style="fill:#fff;stroke-width:2;stroke:#000"/><text x="750" y="565.1" id="text4186" xml:space="preserve" style="-inkscape-font-specification:Sans Bold;fill:#000;font-family:Sans;font-size:40;font-weight:bold;letter-spacing:0;line-height:125;stroke-width:2;stroke:#000;word-spacing:0"><tspan x="750" y="565.1" id="tspan4188" style="-inkscape-font-specification:Sans Bold;font-size:64;font-weight:bold;stroke-width:2;stroke:#000;text-align:center;text-anchor:middle">CQP</tspan><tspan x="750" y="645.1" id="tspan4190" style="-inkscape-font-specification:Sans Bold;font-size:64;font-weight:bold;stroke-width:2;stroke:#000;text-align:center;text-anchor:middle">Engine Order Telegraph</tspan></text><text x="64.3" y="505.2" transform="matrix(0.95270959,-0.30388226,0.30388226,0.95270959,0,0)" id="text4319" xml:space="preserve" style="fill:#000;font-family:Sans;font-size:40;letter-spacing:0;line-height:125;word-spacing:0"><tspan x="64.3" y="505.2" id="tspan4321" font-size="64">FULL</tspan></text><text x="200.6" y="251.2" transform="matrix(0.99808494,0.06185832,-0.06185832,0.99808494,0,0)" id="text4323" xml:space="preserve" style="fill:#000;font-family:Sans;font-size:64;letter-spacing:0;line-height:125;word-spacing:0"><tspan x="200.6" y="251.2" id="tspan4325">HALF</tspan></text><text x="227.1" y="-61.6" transform="matrix(0.88749069,0.46082565,-0.46082565,0.88749069,0,0)" id="text4327" xml:space="preserve" style="fill:#000;font-family:Sans;font-size:64;letter-spacing:0;line-height:125;word-spacing:0"><tspan x="227.1" y="-61.6" id="tspan4329">SLOW</tspan></text><text x="127.9" y="-344.8" transform="matrix(0.66925479,0.74303299,-0.74303299,0.66925479,0,0)" id="text4331" xml:space="preserve" style="fill:#000;font-family:Sans;font-size:64;letter-spacing:0;line-height:125;word-spacing:0"><tspan x="127.9" y="-344.8" id="tspan4333" font-size="50">REVERSE</tspan></text><text x="-23.1" y="-576.3" transform="matrix(0.36321888,0.93170384,-0.93170384,0.36321888,0,0)" id="text4335" xml:space="preserve" style="fill:#000;font-family:Sans;font-size:64;letter-spacing:0;line-height:125;word-spacing:0"><tspan x="-23.1" y="-576.3" id="tspan4337">NEXT</tspan></text><text x="431.3" y="783" transform="matrix(0.44966561,-0.89319698,0.89319698,0.44966561,0,0)" id="text4339" xml:space="preserve" style="fill:#000;font-family:Sans;font-size:64;letter-spacing:0;line-height:125;word-spacing:0"><tspan x="431.3" y="783" id="tspan4341" font-size="60">COFFEE</tspan></text><text x="713.4" y="718.7" transform="matrix(0.72632597,-0.68735041,0.68735041,0.72632597,0,0)" id="text4343" xml:space="preserve" style="fill:#000;font-family:Sans;font-size:64;letter-spacing:0;line-height:125;word-spacing:0"><tspan x="713.4" y="718.7" id="tspan4345">LUNCH</tspan></text><text x="1291.6" y="-105.4" transform="matrix(0.92026634,0.39129256,-0.39129256,0.92026634,0,0)" id="text4347" xml:space="preserve" style="fill:#000;font-family:Sans;font-size:64;letter-spacing:0;line-height:125;text-align:center;text-anchor:middle;word-spacing:0"><tspan x="1291.6" y="-105.4" id="tspan4349" font-size="50">BATTLE</tspan><tspan x="1291.6" y="-42.9" id="tspan4351" font-size="50">STATIONS</tspan></text><text x="1107.5" y="321.1" transform="matrix(0.99927511,-0.03806901,0.03806901,0.99927511,0,0)" id="text4353" xml:space="preserve" style="fill:#000;font-family:Sans;font-size:64;letter-spacing:0;line-height:125;word-spacing:0"><tspan x="1107.5" y="321.1" id="tspan4355">SIWOTI</tspan></text><text x="1005.9" y="596" transform="matrix(0.87844352,-0.4778462,0.4778462,0.87844352,0,0)" id="text4357" xml:space="preserve" style="fill:#000;font-family:Sans;font-size:64;letter-spacing:0;line-height:125;text-align:center;text-anchor:middle;word-spacing:0"><tspan x="1005.9" y="596" id="tspan4359" font-size="40">ENGINE</tspan><tspan x="1005.9" y="646" id="tspan4361" font-size="40">WORKING</tspan><tspan x="1005.9" y="696" id="tspan4363" font-size="40">WRONG</tspan></text><text x="724" y="-253.6" id="text4403" xml:space="preserve" style="-inkscape-font-specification:Sans Bold;fill:#000;font-family:Sans;font-size:64;font-weight:bold;letter-spacing:0;line-height:99;word-spacing:0"><tspan x="724" y="-253.6" id="tspan4405">S</tspan><tspan x="724" y="-190.3" id="tspan4407">T</tspan><tspan x="724" y="-126.9" id="tspan4409">O</tspan><tspan x="724" y="-63.6" id="tspan4411">P</tspan></text></g><g transform="translate(-527.11419,143.03307)" id="layer3" display="none"><path d="m750 974-32 150 4 276 28 0 28 0 4-276-32-150z" transform="translate(0,-150)" id="path5776-1" style="fill-opacity:0.8;fill:#f00;stroke:#000"/></g><g transform="translate(-527.11419,143.03307)" id="layer2"><rect width="71.3" height="36.3" x="713.8" y="442.8" id="rect5797" style="fill:url(#linearGradient5805);stroke-width:1.7;stroke:#000"/><path d="m750 476c0 0-207 3-216 4-9 1-5 23-5 23l171 637 100.1 0 171-637c0 0 4-22-5-23C957.1 479 750 476 750 476L750 647.1 824 549l90 43-114 444c0 0-1.6 8-6.4 17.4l0 0c-6.7 13.1-19.7 28.9-43.6 29.5-41-1-50-47-50-47l-114-444 90-43 74 99c0-57.3 0-114.7 0-172z" id="path4516-6" style="fill:url(#linearGradient5815);stroke-width:2;stroke:#000"/><path d="M1500 750A750 750 0 1 1 0 750 750 750 0 1 1 1500 750z" transform="matrix(0.15845539,0,0,0.15845539,631.15846,1131.1585)" id="path4488" style="fill:url(#linearGradient4491);stroke-width:12.6;stroke:#000"/><path d="M1500 750A750 750 0 1 1 0 750 750 750 0 1 1 1500 750z" transform="matrix(-0.0897006,0,0,-0.0897006,817.27545,1317.2755)" id="path4493" style="fill:url(#linearGradient4495);stroke-width:22.3;stroke:#000"/><rect width="129.5" height="85.5" x="684.7" y="356.7" id="rect5807" style="fill:url(#radialGradient5811);stroke-width:3.5;stroke:#000"/><path d="m749.9 8c-56 0.6-70.6 38.2-78.3 65.3-7.7 27.2-12.2 118.3 1.9 162.7 13.1 41.3 29.5 141.8 23.1 179.1-6.4 37.3-52.6 64.4-52.6 64.4l0 24.6 105.9 0 1.3 0 105.9 0 0-24.6c0 0-46.2-27.1-52.7-64.4-6.4-37.3 10-137.8 23.1-179.1 14.1-44.4 9.6-135.5 1.9-162.7-7.6-27-22.2-64.7-78.3-65.2-0.40-0.8 0-1.2 0z" transform="translate(0,-150)" id="path7321" style="fill:url(#radialGradient7330);stroke-width:2;stroke:#000"/><path d="m664 131 172 0M663 150l173-1" transform="translate(0,-150)" id="path7310" style="fill:none;stroke:#000"/></g></svg>