<svg xmlns:dc="http://purl.org/dc/elements/1.1/" xmlns:cc="http://creativecommons.org/ns#" xmlns:rdf="http://www.w3.org/1999/02/22-rdf-syntax-ns#" xmlns:svg="http://www.w3.org/2000/svg" xmlns="http://www.w3.org/2000/svg" xmlns:xlink="http://www.w3.org/1999/xlink" version="1.1" width="2800" height="2150" id="svg2">
  <defs id="defs4">
    <linearGradient id="linearGradient7300">
      <stop id="stop7302" offset="0" style="stop-color:#855e42;stop-opacity:1"/>
      <stop id="stop7304" offset="1" style="stop-color:#5c4033;stop-opacity:1"/>
    </linearGradient>
    <linearGradient id="linearGradient5836">
      <stop id="stop5838" offset="0" style="stop-color:#5c4033;stop-opacity:1"/>
      <stop id="stop5840" offset="1" style="stop-color:#855e42;stop-opacity:1"/>
    </linearGradient>
    <linearGradient id="linearGradient4019">
      <stop id="stop4031" offset="0" style="stop-color:#f0c000;stop-opacity:1"/>
      <stop id="stop4023" offset="1" style="stop-color:#b5a642;stop-opacity:1"/>
    </linearGradient>
    <linearGradient x1="288" y1="194" x2="1210" y2="1192" id="linearGradient4073" xlink:href="#linearGradient4019" gradientUnits="userSpaceOnUse"/>
    <linearGradient x1="288" y1="194" x2="1210" y2="1192" id="linearGradient4095" xlink:href="#linearGradient4019" gradientUnits="userSpaceOnUse"/>
    <linearGradient x1="288" y1="194" x2="1210" y2="1192" id="linearGradient4073-4" xlink:href="#linearGradient4019-4" gradientUnits="userSpaceOnUse"/>
    <linearGradient id="linearGradient4019-4">
      <stop id="stop4031-3" offset="0" style="stop-color:#f0c000;stop-opacity:1"/>
      <stop id="stop4023-8" offset="1" style="stop-color:#b5a642;stop-opacity:1"/>
    </linearGradient>
    <linearGradient x1="288" y1="194" x2="1210" y2="1192" id="linearGradient4491" xlink:href="#linearGradient4019" gradientUnits="userSpaceOnUse"/>
    <linearGradient x1="288" y1="194" x2="1210" y2="1192" id="linearGradient4495" xlink:href="#linearGradient4019" gradientUnits="userSpaceOnUse"/>
    <linearGradient x1="774" y1="467" x2="726" y2="434" id="linearGradient5805" xlink:href="#linearGradient4019" gradientUnits="userSpaceOnUse" gradientTransform="matrix(1.0043494,0,0,0.71193738,645.73579,139.56027)"/>
    <radialGradient cx="749.5" cy="399.5" r="66.5" fx="749.5" fy="399.5" id="radialGradient5811" xlink:href="#linearGradient4019" gradientUnits="userSpaceOnUse" gradientTransform="matrix(1,0,0,0.66917296,650,132.16541)"/>
    <linearGradient x1="615" y1="551" x2="807" y2="961" id="linearGradient5815" xlink:href="#linearGradient4019" gradientUnits="userSpaceOnUse" gradientTransform="translate(650,0)"/>
    <radialGradient cx="750" cy="61.55" r="108.53" fx="750" fy="61.55" id="radialGradient7308" xlink:href="#linearGradient7300" gradientUnits="userSpaceOnUse" gradientTransform="matrix(1,0,0,2.2945274,0,-137.21991)"/>
    <radialGradient cx="750" cy="61.55" r="108.53" fx="750" fy="61.55" id="radialGradient7328" xlink:href="#linearGradient7300" gradientUnits="userSpaceOnUse" gradientTransform="matrix(1,0,0,2.2945274,1,-137.21991)"/>
    <radialGradient cx="750" cy="61.55" r="108.53" fx="750" fy="61.55" id="radialGradient7330" xlink:href="#linearGradient7300" gradientUnits="userSpaceOnUse" gradientTransform="matrix(1,0,0,2.2945274,649,-137.21991)"/>
  </defs>
  <metadata id="metadata7">
    <rdf:RDF>
      <cc:Work rdf:about="">
        <dc:format>
          image/svg+xml
        </dc:format>
        <dc:type rdf:resource="http://purl.org/dc/dcmitype/StillImage"/>
      </cc:Work>
    </rdf:RDF>
  </metadata>
  <g transform="translate(0,1097.6378)" id="base">
    <g transform="translate(884.25139,106.67361)" id="g3836"/>
    <path d="M1500 750A750 750 0 1 1 0 750 750 750 0 1 1 1500 750z" transform="translate(650,-447.63782)" id="path3249" style="fill-rule:evenodd;fill:url(#linearGradient4073);stroke-miterlimit:4;stroke-width:2;stroke:#afafaf"/>
    <path d="M750 0C335.79 0 0 335.79 0 750c0 414.21 335.79 750 750 750 414.21 0 750-335.79 750-750C1500 335.79 1164.21 0 750 0z" transform="matrix(-0.90939374,0,0,-0.90939374,2082.0453,984.40749)" id="path4087" style="fill-rule:evenodd;fill:url(#linearGradient4095);stroke-miterlimit:4;stroke-width:1.1;stroke:#afafaf"/>
    <path d="M750 0C335.79 0 0 335.79 0 750c0 414.21 335.79 750 750 750 414.21 0 750-335.79 750-750C1500 335.79 1164.21 0 750 0z" transform="matrix(-0.89073951,0,0,-0.89073951,2068.0546,970.41682)" id="path4097" style="fill-rule:evenodd;fill:#fff;stroke-miterlimit:4;stroke-width:2.25;stroke:#000"/>
    <path d="M750 0C335.79 0 0 335.79 0 750c0 414.21 335.79 750 750 750 414.21 0 750-335.79 750-750C1500 335.79 1164.21 0 750 0z" transform="matrix(-0.8134577,0,0,-0.8134577,2010.0932,912.45546)" id="path4101" style="fill-rule:evenodd;fill:#fff;stroke-miterlimit:4;stroke-width:2.46;stroke:#000"/>
    <path d="m1717.49-219.17-316.67 521.37 481.96-374.29" id="path4281" style="fill:none;stroke-miterlimit:4;stroke-width:2;stroke:#000"/>
    <path d="M918.38-71.97 1399.49 303.03 1083.63-219.09" id="path4293" style="fill:none;stroke-miterlimit:4;stroke-width:2;stroke:#000"/>
    <path d="m1984.57 123.24-583.03 179.38 608.89 40.35" id="path4285" style="fill:none;stroke-miterlimit:4;stroke-width:2;stroke:#000"/>
    <path d="M790.86 343.67 1399.56 303.87 816.47 123.9" id="path4297" style="fill:none;stroke-miterlimit:4;stroke-width:2;stroke:#000"/>
    <path d="M750 0C335.79 0 0 335.79 0 750c0 414.21 335.79 750 750 750 414.21 0 750-335.79 750-750C1500 335.79 1164.21 0 750 0z" transform="matrix(-0.47668664,0,0,-0.47668664,1757.515,659.87717)" id="path4103" style="fill-rule:evenodd;fill:#fff;stroke-miterlimit:4;stroke-width:4.12;stroke:#000"/>
    <path d="M1136.02 403.86C1079.83 258.26 1152.32 94.67 1297.93 38.49 1443.54-17.7 1607.12 54.79 1663.31 200.4 1719.49 346 1647 509.59 1501.4 565.78 1355.79 621.96 1192.2 549.47 1136.02 403.86z" id="path4210" fill="none"/>
    <text transform="matrix(0.99813602,0.06102853,-0.06102853,0.99813602,17.781141,-87.205309)" id="text4213" xml:space="preserve" style="fill:#000;font-family:Sans;font-size:40;letter-spacing:0;line-height:125;word-spacing:0">
      <textPath xlink:href="#path4210" id="textPath4217">
        <tspan id="tspan4215" style="font-size:56;letter-spacing:15">
          SCIENCING
        </tspan>
      </textPath>
    </text>
    <text transform="matrix(-0.74232293,0.6700423,-0.6700423,-0.74232293,2643.3507,-417.39055)" id="text4234" xml:space="preserve" style="fill:#000;font-family:Sans;font-size:40;letter-spacing:0;line-height:125;word-spacing:0">
      <textPath xlink:href="#path4210" id="textPath4238">
        <tspan id="tspan4236" style="font-size:56;letter-spacing:15">
          MANDATE
        </tspan>
      </textPath>
    </text>
    <path d="m1290-297.64 110 600 111.25-600" id="path4277" style="fill:none;stroke-miterlimit:4;stroke-width:2;stroke:#000"/>
    <path d="M750 0C335.79 0 0 335.79 0 750c0 414.21 335.79 750 750 750 414.21 0 750-335.79 750-750C1500 335.79 1164.21 0 750 0z" transform="matrix(-0.35287929,0,0,-0.35287929,1664.6594,567.02166)" id="path4105" style="fill-rule:evenodd;fill:#fff;stroke-miterlimit:4;stroke-width:5.67;stroke:#000"/>
    <rect width="567.5" height="212.5" x="1103.75" y="494.86" id="rect4313" style="fill-rule:evenodd;fill:#fff"/>
    <path d="M1953.37 555.3 1400.17 304.45 845.07 557.91" id="path4311" style="fill:#fff;stroke-miterlimit:4;stroke-width:2;stroke:#000"/>
    <text x="1400" y="565.11" id="text4186" xml:space="preserve" style="-inkscape-font-specification:Sans Bold;fill:#000;font-family:Sans;font-size:40;font-weight:bold;letter-spacing:0;line-height:125;stroke-miterlimit:4;stroke-width:2;stroke:#000;word-spacing:0">
      <tspan x="1460" y="565.11" id="tspan4188" style="-inkscape-font-specification:Sans Bold;font-size:64;font-weight:bold;stroke-miterlimit:4;stroke-width:2;stroke:#000;text-align:center;text-anchor:middle">
        CQP
      </tspan>
      <tspan x="1460" y="645.11" id="tspan4190" style="-inkscape-font-specification:Sans Bold;font-size:64;font-weight:bold;stroke-miterlimit:4;stroke-width:2;stroke:#000;text-align:center;text-anchor:middle">
        Engine Order Telegraph
      </tspan>
    </text>
    <text x="683.58" y="702.69" transform="matrix(0.95270959,-0.30388226,0.30388226,0.95270959,0,0)" id="text4319" xml:space="preserve" style="fill:#000;font-family:Sans;font-size:40;letter-spacing:0;line-height:125;word-spacing:0">
      <tspan x="683.58" y="702.69" id="tspan4321" font-size="64">
        FULL
      </tspan>
    </text>
    <text x="849.39" y="211.02" transform="matrix(0.99808494,0.06185832,-0.06185832,0.99808494,0,0)" id="text4323" xml:space="preserve" style="fill:#000;font-family:Sans;font-size:64;letter-spacing:0;line-height:125;word-spacing:0">
      <tspan x="849.39" y="211.02" id="tspan4325">
        HALF
      </tspan>
    </text>
    <text x="804.01" y="-361.15" transform="matrix(0.88749069,0.46082565,-0.46082565,0.88749069,0,0)" id="text4327" xml:space="preserve" style="fill:#000;font-family:Sans;font-size:64;letter-spacing:0;line-height:125;word-spacing:0">
      <tspan x="804.01" y="-361.15" id="tspan4329">
        SLOW
      </tspan>
    </text>
    <text x="562.95" y="-827.75" transform="matrix(0.66925479,0.74303299,-0.74303299,0.66925479,0,0)" id="text4331" xml:space="preserve" style="fill:#000;font-family:Sans;font-size:64;letter-spacing:0;line-height:125;word-spacing:0">
      <tspan x="562.95" y="-827.75" id="tspan4333" font-size="50">
        REVERSE
      </tspan>
    </text>
    <text x="213.02" y="-1181.86" transform="matrix(0.36321888,0.93170384,-0.93170384,0.36321888,0,0)" id="text4335" xml:space="preserve" style="fill:#000;font-family:Sans;font-size:64;letter-spacing:0;line-height:125;word-spacing:0">
      <tspan x="213.02" y="-1181.86" id="tspan4337">
        NEXT
      </tspan>
    </text>
    <text x="723.63" y="1363.62" transform="matrix(0.44966561,-0.89319698,0.89319698,0.44966561,0,0)" id="text4339" xml:space="preserve" style="fill:#000;font-family:Sans;font-size:64;letter-spacing:0;line-height:125;word-spacing:0">
      <tspan x="723.63" y="1363.62" id="tspan4341" font-size="60">
        COFFEE
      </tspan>
    </text>
    <text x="1185.5" y="1165.45" transform="matrix(0.72632597,-0.68735041,0.68735041,0.72632597,0,0)" id="text4343" xml:space="preserve" style="fill:#000;font-family:Sans;font-size:64;letter-spacing:0;line-height:125;word-spacing:0">
      <tspan x="1185.5" y="1165.45" id="tspan4345">
        LUNCH
      </tspan>
    </text>
    <text x="1889.83" y="-359.71" transform="matrix(0.92026634,0.39129256,-0.39129256,0.92026634,0,0)" id="text4347" xml:space="preserve" style="fill:#000;font-family:Sans;font-size:64;letter-spacing:0;line-height:125;text-align:center;text-anchor:middle;word-spacing:0">
      <tspan x="1970.83" y="-359.71" id="tspan4349" font-size="50">
        BATTLE
      </tspan>
      <tspan x="1948.83" y="-297.21" id="tspan4351" font-size="50">
        STATIONS
      </tspan>
    </text>
    <text x="1757.07" y="345.85" transform="matrix(0.99927511,-0.03806901,0.03806901,0.99927511,0,0)" id="text4353" xml:space="preserve" style="fill:#000;font-family:Sans;font-size:64;letter-spacing:0;line-height:125;word-spacing:0">
      <tspan x="1757.07" y="345.85" id="tspan4355">
        SIWOTI
      </tspan>
    </text>
    <text x="1576.92" y="906.63" transform="matrix(0.87844352,-0.4778462,0.4778462,0.87844352,0,0)" id="text4357" xml:space="preserve" style="fill:#000;font-family:Sans;font-size:64;letter-spacing:0;line-height:125;text-align:center;text-anchor:middle;word-spacing:0">
      <tspan x="1636.92" y="906.63" id="tspan4359" font-size="40">
        ENGINE
      </tspan>
      <tspan x="1636.92" y="956.63" id="tspan4361" font-size="40">
        WORKING
      </tspan>
      <tspan x="1626.92" y="1006.63" id="tspan4363" font-size="40">
        WRONG
      </tspan>
    </text>
    <text x="1374" y="-253.64" id="text4403" xml:space="preserve" style="-inkscape-font-specification:Sans Bold;fill:#000;font-family:Sans;font-size:64;font-weight:bold;letter-spacing:0;line-height:99;word-spacing:0">
      <tspan x="1374" y="-253.64" id="tspan4405">
        S
      </tspan>
      <tspan x="1374" y="-190.28" id="tspan4407">
        T
      </tspan>
      <tspan x="1374" y="-126.92" id="tspan4409">
        O
      </tspan>
      <tspan x="1374" y="-63.56" id="tspan4411">
        P
      </tspan>
    </text>
  </g>
  <g id="indicator">
    <path d="m1400 824-32 150 4 276 28 0 28 0 4-276-32-150z" transform="translate(0,150)" id="path5776-1" style="fill-opacity:0.76;fill:#f00;stroke:#000"/>
    <animateTransform attributeName="transform" type="rotate" values="-105 1400 1400; 105 1400 1400; -105 1400 1400" begin="0s" dur="10s" repeatCount="indefinite"/>
  </g>
  <g id="handle" display="inline">
    <rect width="71.31" height="36.31" x="1363.85" y="592.85" id="rect5797" style="fill-rule:evenodd;fill:url(#linearGradient5805);stroke-miterlimit:4;stroke-width:1.69;stroke:#000"/>
    <path d="m1400 476c0 0-207 3-216 4-9 1-5 23-5 23l171 637 100.13 0 171-637c0 0 4-22-5-23-9-1-216.12-4-216.12-4l0 171.09 74-98.09 90 43-114 444c0 0-1.59 8.02-6.41 17.44l0 0.03c-6.72 13.13-19.73 28.95-43.59 29.53-41-1-50-47-50-47l-114-444 90-43 74 99c0-57.33 0-114.67 0-172z" id="path4516-6" style="display:inline;fill:url(#linearGradient5815);stroke-miterlimit:4;stroke-width:2;stroke:#000" transform="translate(0,150)"/>
    <path d="M1500 750A750 750 0 1 1 0 750 750 750 0 1 1 1500 750z" transform="matrix(0.15845539,0,0,0.15845539,1281.1585,1281.1585)" id="path4488" style="fill-rule:evenodd;fill:url(#linearGradient4491);stroke-miterlimit:4;stroke-width:12.62;stroke:#000"/>
    <path d="M1500 750A750 750 0 1 1 0 750 750 750 0 1 1 1500 750z" transform="matrix(-0.0897006,0,0,-0.0897006,1467.2754,1467.2755)" id="path4493" style="fill-rule:evenodd;fill:url(#linearGradient4495);stroke-miterlimit:4;stroke-width:22.3;stroke:#000"/>
    <rect width="129.5" height="85.5" x="1334.75" y="506.75" id="rect5807" style="fill-rule:evenodd;fill:url(#radialGradient5811);stroke-miterlimit:4;stroke-width:3.5;stroke:#000"/>
    <path d="m1399.88-142.03c-56.05 0.55-70.64 38.21-78.28 65.25-7.7 27.24-12.21 118.28 1.91 162.72 13.11 41.26 29.51 141.82 23.09 179.09-6.41 37.27-52.62 64.41-52.62 64.41l0 24.59 105.91 0 1.25 0 105.91 0 0-24.59c0 0-46.24-27.13-52.66-64.41-6.41-37.27 9.99-137.84 23.09-179.09 14.12-44.44 9.63-135.48 1.94-162.72-7.64-27.04-22.23-64.7-78.28-65.25-0.420-0.83 0-1.25 0z" id="path7321" style="display:inline;fill:url(#radialGradient7330);stroke-miterlimit:4;stroke-width:2;stroke:#000" transform="translate(0,150)"/>
    <path d="m1314-19 172 0" id="path7310" style="fill:none;stroke:#000" transform="translate(0,150)"/>
    <path d="m1313 0 173-1" id="path7312" style="fill:none;stroke:#000" transform="translate(0,150)"/>
    <animateTransform attributeName="transform" type="rotate" values="-105 1400 1400; 105 1400 1400; -105 1400 1400" begin="0s" dur="20s" repeatCount="indefinite"/>
  </g>
</svg>
